<svg width="128" height="128" xmlns="http://www.w3.org/2000/svg">

 <g>
  <title>background</title>
  <rect fill="none" id="canvas_background" height="402" width="582" y="-1" x="-1"/>
 </g>
 <g>
  <title>Layer 1</title>
  <path id="svg_1" fill="#FFFFFF" d="m69,56l-11,0l0,57c0,2.8 2.5,5 5.3,5l0.4,0c2.8,0 5.4,-2.2 5.4,-5l0,-57l-0.1,0z"/>
  <path id="svg_2" stroke-width="2" stroke-miterlimit="10" stroke="#3D3D3D" fill="none" d="m69,56l-11,0l0,57c0,2.8 2.5,5 5.3,5l0.4,0c2.8,0 5.4,-2.2 5.4,-5l0,-57l-0.1,0z"/>
  <polygon id="svg_3" points="71.4,32 55.6,32 58.5,56 68.5,56 " fill="#C1C1C0"/>
  <polygon id="svg_4" stroke-width="2" stroke-miterlimit="10" stroke="#3D3D3D" points="71.4,32 55.6,32 58.5,56 68.5,56 " fill="none"/>
  <path stroke="null" id="svg_5" fill="#3d3d3d" d="m63.5,11.9l0,0c-4.4,0 -10.8,3.5 -10.8,7.9l2.9,12.2l15.8,0l2.9,-12.2c0,-4.3 -6.4,-7.9 -10.8,-7.9z"/>
  <path stroke="#3D3D3D" id="svg_6" stroke-width="2" stroke-miterlimit="10" fill="none" d="m63.412088,11.9l0,0c-4.364184,0 -10.712088,3.5 -10.712088,7.9l2.876394,12.2l15.671388,0l2.876394,-12.2c0,-4.3 -6.347904,-7.9 -10.712088,-7.9z"/>
  <line id="svg_7" y2="21" y1="12" x2="61" x1="61" stroke-width="2" stroke-miterlimit="10" stroke="#3D3D3D" fill="none"/>
  <line id="svg_8" y2="21" y1="12" x2="66" x1="66" stroke-width="2" stroke-miterlimit="10" stroke="#3D3D3D" fill="none"/>
  <line id="svg_9" y2="21" y1="14" x2="70" x1="70" stroke-width="2" stroke-miterlimit="10" stroke="#3D3D3D" fill="none"/>
  <line id="svg_10" y2="21" y1="14" x2="57" x1="57" stroke-width="2" stroke-miterlimit="10" stroke="#3D3D3D" fill="none"/>
 </g>
</svg>